<?xml version="1.0" encoding="utf-8"?>
<!-- Generator: Adobe Illustrator 21.0.0, SVG Export Plug-In . SVG Version: 6.00 Build 0)  -->
<svg version="1.1" id="Layer_1" xmlns="http://www.w3.org/2000/svg" xmlns:xlink="http://www.w3.org/1999/xlink" x="0px" y="0px"
	 viewBox="0 0 308.6 629.2" style="enable-background:new 0 0 308.6 629.2;" xml:space="preserve">
<style type="text/css">
	.st0{fill:#FFFFFF;stroke:#EFEFEF;}
	.st1{fill:#A0A7B1;}
	.st2{fill:#FFFFFF;}
	.st3{fill:none;stroke:#E0E1E2;stroke-width:2;}
	.st4{fill:none;stroke:#E6E6E6;}
</style>
<g transform="matrix(1, 0, 0, 1, -703.19, -3027.9)">
	<path id="Union_1-2" class="st0" d="M749.9,3656.6c-23.7,0-43-19.3-43-43v-352.1h-1.2c-1.1,0-2-0.9-2-2v-41.3c0-1.1,0.9-2,2-2h1.2
		v-6.5h-1.2c-1.1,0-2-0.9-2-2v-41.3c0-1.1,0.9-2,2-2h1.2v-27.5h-1.2c-1.1,0-2-0.9-2-2v-23.5c0-1.1,0.9-2,2-2h1.2v-38
		c0-23.7,19.3-43,43-43h218.4c23.7,0,43,19.3,43,43v542.2c0,23.7-19.3,43-43,43H749.9z"/>
</g>
<circle id="Ellipse_8" class="st1" cx="154.3" cy="19.9" r="3.2"/>
<circle id="Ellipse_9" class="st1" cx="106.6" cy="40.2" r="4"/>
<path id="Rectangle_13" class="st1" d="M135.3,37.7H175c1.1,0,2,0.9,2,2v0.9c0,1.1-0.9,2-2,2h-39.7c-1.1,0-2-0.9-2-2v-0.9
	C133.3,38.6,134.2,37.7,135.3,37.7z"/>
<g id="Ellipse_10" transform="translate(-585.854 -1969.559)">
	<circle class="st2" cx="740.2" cy="2556.2" r="22.7"/>
	<circle class="st3" cx="740.2" cy="2556.2" r="21.7"/>
</g>
<g id="Rectangle_14" transform="translate(-695.952 -2456.903)">
	<rect x="717.5" y="2533.5" class="st2" width="268.8" height="474.4"/>
	<rect x="718" y="2534" class="st4" width="267.8" height="473.4"/>
</g>
</svg>
